<svg xmlns="http://www.w3.org/2000/svg"><style>:root svg:not(:target){display:none}</style><svg id="arrow-back" viewBox="0 0 26 26"><path d="M26.105 21.891a.568.568 0 0 1-.529-.346c-.066-.156-1.716-3.857-7.885-4.59-1.285-.156-2.824-.236-4.693-.25v4.613a.574.574 0 0 1-.304.508.577.577 0 0 1-.588-.033L.254 13.815a.573.573 0 0 1 0-.953l11.857-7.979a.563.563 0 0 1 .588-.029c.19.102.303.295.303.502v4.293c2.578.336 13.674 2.33 13.674 11.674a.574.574 0 0 1-.459.562c-.037.006-.076.006-.112.006z"></path></svg><svg id="github" viewBox="0 0 20 20"><path d="M10 0c5.523 0 10 4.59 10 10.253 0 4.529-2.862 8.371-6.833 9.728-.507.101-.687-.219-.687-.492 0-.338.012-1.442.012-2.814 0-.956-.32-1.58-.679-1.898 2.227-.254 4.567-1.121 4.567-5.059 0-1.12-.388-2.034-1.03-2.752.104-.259.447-1.302-.098-2.714 0 0-.838-.275-2.747 1.051A9.396 9.396 0 0 0 10 4.958a9.375 9.375 0 0 0-2.503.345C5.586 3.977 4.746 4.252 4.746 4.252c-.543 1.412-.2 2.455-.097 2.714-.639.718-1.03 1.632-1.03 2.752 0 3.928 2.335 4.808 4.556 5.067-.286.256-.545.708-.635 1.371-.57.262-2.018.715-2.91-.852 0 0-.529-.985-1.533-1.057 0 0-.975-.013-.068.623 0 0 .655.315 1.11 1.5 0 0 .587 1.83 3.369 1.21.005.857.014 1.665.014 1.909 0 .271-.184.588-.683.493C2.865 18.627 0 14.783 0 10.253 0 4.59 4.478 0 10 0" fill="#000" fill-rule="evenodd"></path></svg><svg id="internet" viewBox="0 0 512 512"><path style="fill:#25b6d2" d="M244 4.608h24v489.92h-24z"></path><path style="fill:#25b6d2" d="M11.632 244h493.624v24H11.632zM255.712 196.648c-128.36 0-179.528-106.68-181.6-111.2l21.752-10.144-10.872 5.072 10.864-5.088c1.872 4 47.152 97.376 159.896 97.376 113.168 0 158.168-95.272 158.608-96.232l21.816 10c-34.384 67.992-104.272 110.68-180.464 110.216zM95.824 436.712l-21.752-10.144c2.112-4.536 53.28-111.2 181.64-111.2 76.176-.448 146.056 42.248 180.424 110.232l-21.816 10c-30.456-59.456-91.808-96.688-158.608-96.248-113.224 0-159.44 96.384-159.888 97.36z"></path><path style="fill:#25b6d2" d="M242.608 510.656c-4.848-4.44-118.752-110.36-118.752-254.656 0-144.512 116.504-246.512 121.472-250.792l15.664 18.176c-1.136.984-113.136 99.296-113.136 232.616 0 133.832 109.84 235.936 110.952 236.952l-16.2 17.704z"></path><path style="fill:#25b6d2" d="m269.392 510.656-16.208-17.696c1.112-1.024 110.96-103.416 110.96-236.96s-112-231.624-113.128-232.6l15.656-18.184C271.632 9.488 388.144 111.488 388.144 256c0 144.296-113.904 250.216-118.752 254.656z"></path><path style="fill:#25b6d2" d="M256 512C114.616 512 0 397.384 0 256S114.616 0 256 0s256 114.616 256 256c-.168 141.312-114.688 255.832-256 256zm0-488C127.872 24 24 127.872 24 256s103.872 232 232 232 232-103.872 232-232c-.16-128.064-103.936-231.84-232-232z"></path></svg><svg id="location" viewBox="0 0 64 64"><path fill="#231F20" d="M32 0C18.746 0 8 10.746 8 24c0 5.219 1.711 10.008 4.555 13.93.051.094.059.199.117.289l16 24a4.001 4.001 0 0 0 6.656 0l16-24c.059-.09.066-.195.117-.289C54.289 34.008 56 29.219 56 24 56 10.746 45.254 0 32 0zm0 32a8 8 0 1 1 0-16 8 8 0 0 1 0 16z"></path></svg><svg id="mail" viewBox="0 0 24 24"><path d="M22 8.32V18a2 2 0 0 1-2 2H4a2 2 0 0 1-2-2V8.69l2 1.09 7.52 4.1A1 1 0 0 0 12 14a1 1 0 0 0 .5-.14L20 9.49Z" style="fill:#231f20"></path><path d="m22 6-2 1.18-8 4.67L4 7.5 2 6.4V6a2 2 0 0 1 2-2h16a2 2 0 0 1 2 2Z" style="fill:#231f20"></path></svg><svg id="phone" viewBox="0 0 32 32"><path d="M21.999 4h-12A2 2 0 0 0 8 6v20a2 2 0 0 0 1.999 2h12A2 2 0 0 0 24 26V6a2 2 0 0 0-2.001-2zM13 5h5l.062 1H13V5zm2.979 21.5a1 1 0 1 1 0-2 1 1 0 0 1 0 2zm6.02-3.5h-12l.021-16h11.979v16z"></path></svg><svg fill="none" id="telegram" viewBox="0 0 48 48"><path d="M41.42 7.309s3.885-1.515 3.56 2.164c-.107 1.515-1.078 6.818-1.834 12.553l-2.59 16.99s-.216 2.489-2.159 2.922c-1.942.432-4.856-1.515-5.396-1.948-.432-.325-8.094-5.195-10.792-7.575-.756-.65-1.62-1.948.108-3.463L33.648 18.13c1.295-1.298 2.59-4.328-2.806-.649l-15.11 10.28s-1.727 1.083-4.964.109l-7.016-2.165s-2.59-1.623 1.835-3.246c10.793-5.086 24.068-10.28 35.831-15.15Z" fill="#000"></path></svg><svg id="touch" viewBox="0 0 14 14"><path d="M6.828 12.957c-.024-.024-.044-.135-.045-.245 0-.111-.056-.322-.122-.468-.118-.26-.24-.396-1.014-1.137-.32-.306-.459-.528-.964-1.533-.667-1.326-.86-1.645-1.386-2.281-.505-.612-.483-.86.09-1.032.217-.065.305-.058.568.042.369.14.89.64 1.158 1.11.102.18.246.392.32.473.154.17.405.194.462.044.022-.057.04-1.289.04-2.737 0-3.03-.024-2.902.564-2.959.281-.027.354-.01.519.134l.191.165v1.314c0 .891.021 1.285.066 1.225.18-.244.566-.306.883-.142.245.126.325.281.328.632.002.245.013.268.087.17.35-.46 1.218-.137 1.218.452v.225l.172-.135c.203-.16.34-.169.642-.043.397.165.414.258.437 2.364l.021 1.898-.314.604c-.347.669-.472 1.03-.538 1.553l-.043.35H8.52c-.907 0-1.668-.02-1.692-.044zM5.353 4.209c-.407-.367-.593-.798-.593-1.371 0-1.903 2.486-2.544 3.423-.882.18.32.202.417.201.882 0 .44-.029.576-.177.86-.157.3-.585.741-.719.741-.128 0-.03-.321.152-.494.478-.455.623-1.21.337-1.765-.175-.339-.583-.708-.897-.812-.648-.214-1.458.082-1.819.665-.376.608-.296 1.322.212 1.9.134.154.203.294.189.388-.02.141-.035.136-.31-.112zm.135-.874C4.886 1.947 6.87.936 7.616 2.252c.177.313.196.794.043 1.116-.187.395-.245.346-.202-.17.047-.56-.03-.804-.342-1.066-.374-.314-1.083-.192-1.323.229-.047.083-.1.415-.118.738l-.033.589z"></path></svg></svg>