<?xml version="1.0" encoding="utf-8"?><svg viewBox="0 0 42 42" xmlns="http://www.w3.org/2000/svg" xmlns:xlink="http://www.w3.org/1999/xlink"><style>:root>svg{display:none}:root>svg:target{display:block}</style><svg fill="none" viewBox="0 0 16 10" id="arrow-down" xmlns="http://www.w3.org/2000/svg"><path fill-rule="evenodd" clip-rule="evenodd" d="M1.464 1.464a1 1 0 0 0 0 1.415l5.657 5.657c.24.239.57.331.879.278.31.053.64-.04.879-.278l5.657-5.657a1 1 0 0 0-1.415-1.415L8 6.586 2.879 1.464a1 1 0 0 0-1.415 0Z" fill="#fff"/></svg><svg fill="none" viewBox="0 0 20 20" id="arrow-repeat" xmlns="http://www.w3.org/2000/svg"><path fill-rule="evenodd" clip-rule="evenodd" d="M10 0v1.667A8.32 8.32 0 0 1 18.333 10 8.32 8.32 0 0 1 10 18.333 8.32 8.32 0 0 1 1.667 10c0-2.722 1.32-5.122 3.333-6.64V7.5h1.667V.833H0V2.5h3.411C1.328 4.332 0 7.014 0 10c0 5.513 4.487 10 10 10s10-4.487 10-10S15.513 0 10 0Z" fill="#000"/></svg><svg fill="none" viewBox="0 0 22 20" id="ask" xmlns="http://www.w3.org/2000/svg"><path fill-rule="evenodd" clip-rule="evenodd" d="M0 0v15.589h4.231V20l1.375-1.137 3.993-3.274H22V0H0Zm1.692 1.732h18.616v12.124H9.017l-.238.19-2.856 2.328v-2.518H1.692V1.732Zm11.37 2.111-1.216 1.245 1.798 1.84h-7.72V8.66h7.72l-1.85 1.895L13.01 11.8l3.278-3.383.609-.623-.608-.622-3.227-3.329Z" fill="#2B2B2B"/></svg><svg fill="none" viewBox="0 0 15 19" id="bell" xmlns="http://www.w3.org/2000/svg"><path fill-rule="evenodd" clip-rule="evenodd" d="M7.5 0C6.672 0 6 .654 6 1.462c0 .062.016.122.023.182C3.43 2.29 1.5 4.584 1.5 7.308v6.577c0 .412-.326.73-.75.73H0v1.462h5.39c-.085.23-.14.473-.14.73C5.25 18.01 6.266 19 7.5 19s2.25-.99 2.25-2.192c0-.258-.055-.5-.14-.731H15v-1.462h-.75a.729.729 0 0 1-.75-.73V7.513c0-2.746-1.882-5.194-4.523-5.869.007-.06.023-.12.023-.182C9 .654 8.328 0 7.5 0Zm-.328 2.923c.109-.008.217 0 .328 0h.14c2.45.072 4.36 2.165 4.36 4.59v6.372c0 .258.055.5.14.73H2.86c.085-.23.14-.472.14-.73V7.308c0-2.321 1.834-4.22 4.172-4.385ZM7.5 16.077a.73.73 0 0 1 .75.73.73.73 0 0 1-.75.732.73.73 0 0 1-.75-.731.73.73 0 0 1 .75-.731Z" fill="#fff"/></svg><svg fill="none" viewBox="0 0 17 17" id="building" xmlns="http://www.w3.org/2000/svg"><path fill-rule="evenodd" clip-rule="evenodd" d="m8.5 0-.177.044L.53 2.166 0 2.321V17h7.792v-2.83h1.416V17H17V2.322l-.531-.156L8.677.044 8.5 0Zm0 1.459 7.083 1.923v12.203h-4.958v-2.829h-4.25v2.828H1.417V3.382L8.5 1.46ZM3.542 4.267V5.68h1.416V4.267H3.542Zm2.833 0V5.68h1.417V4.267H6.375Zm2.833 0V5.68h1.417V4.267H9.208Zm2.834 0V5.68h1.416V4.267h-1.416Zm-8.5 2.83V8.51h1.416V7.096H3.542Zm2.833 0V8.51h1.417V7.096H6.375Zm2.833 0V8.51h1.417V7.096H9.208Zm2.834 0V8.51h1.416V7.096h-1.416Zm-8.5 2.829v1.415h1.416V9.926H3.542Zm2.833 0v1.415h1.417V9.926H6.375Zm2.833 0v1.415h1.417V9.926H9.208Zm2.834 0v1.415h1.416V9.926h-1.416Zm-8.5 2.83v1.414h1.416v-1.415H3.542Zm8.5 0v1.414h1.416v-1.415h-1.416Z" fill="#fff"/></svg><svg fill="none" viewBox="0 0 42 42" id="circle-with-cross" xmlns="http://www.w3.org/2000/svg"><path fill-rule="evenodd" clip-rule="evenodd" d="M21 42c11.598 0 21-9.402 21-21S32.598 0 21 0 0 9.402 0 21s9.402 21 21 21Zm-1-30a1 1 0 1 1 2 0v8h8a1 1 0 1 1 0 2h-8v8a1 1 0 1 1-2 0v-8h-8a1 1 0 1 1 0-2h8v-8Z" fill="#fff"/></svg><svg fill="none" viewBox="0 0 16 16" id="cross" xmlns="http://www.w3.org/2000/svg"><path fill-rule="evenodd" clip-rule="evenodd" d="M15.071.929a1 1 0 0 0-1.414 0L8 6.586 2.343.929A1 1 0 1 0 .93 2.343L6.586 8 .929 13.657a1 1 0 1 0 1.414 1.414L8 9.414l5.657 5.657a1 1 0 1 0 1.414-1.414L9.414 8l5.657-5.657a1 1 0 0 0 0-1.414Z" fill="#2B2B2B"/></svg><svg fill="none" viewBox="0 0 18 18" id="search" xmlns="http://www.w3.org/2000/svg"><path fill-rule="evenodd" clip-rule="evenodd" d="M11.001 0C7.144 0 4.002 3.142 4.002 6.999c0 1.676.588 3.21 1.575 4.418L0 16.994 1.006 18l5.577-5.577a6.943 6.943 0 0 0 4.418 1.575c3.857 0 6.999-3.142 6.999-7C18 3.143 14.858 0 11.001 0Zm0 1.4c3.1 0 5.6 2.498 5.6 5.599 0 3.1-2.5 5.599-5.6 5.599a5.588 5.588 0 0 1-5.599-5.6c0-3.1 2.499-5.598 5.6-5.598Z" fill="#2B2B2B"/></svg><svg fill="none" viewBox="0 0 21 20" id="star" xmlns="http://www.w3.org/2000/svg"><path fill-rule="evenodd" clip-rule="evenodd" d="m10.5 0-.663 1.512-2.38 5.338-5.81.619L0 7.651l1.235 1.1 4.324 3.917-1.213 5.727L4.003 20l1.441-.825 5.056-2.932 5.056 2.932 1.44.825-.342-1.604-1.213-5.727 4.324-3.918L21 7.651l-1.647-.183-5.81-.618-2.38-5.338L10.5 0Zm0 3.597 1.876 4.238.183.39.412.045 4.598.481-3.432 3.093-.32.298.091.412.961 4.514-4.003-2.291-.366-.23-.366.23-4.003 2.29.96-4.513.092-.412-.32-.298L3.43 8.751l4.598-.48.412-.046.183-.39L10.5 3.597Z" fill="#2B2B2B"/></svg><svg fill="none" viewBox="0 0 22 4" id="three-dots" xmlns="http://www.w3.org/2000/svg"><path fill-rule="evenodd" clip-rule="evenodd" d="M1.833 0C.821 0 0 .895 0 2s.82 2 1.833 2 1.834-.895 1.834-2-.821-2-1.834-2ZM11 0C9.988 0 9.167.895 9.167 2S9.987 4 11 4c1.012 0 1.833-.895 1.833-2S12.013 0 11 0Zm9.167 0c-1.013 0-1.834.895-1.834 2s.821 2 1.834 2C21.179 4 22 3.105 22 2s-.82-2-1.833-2Z" fill="#000"/></svg></svg>