<svg width="70" height="70" fill="none" xmlns="http://www.w3.org/2000/svg"><path fill-rule="evenodd" clip-rule="evenodd" d="M70 35c0 5.588-1.31 10.87-3.638 15.556H37.188c5.387-7.335 10.937-16.216 10.937-25.278 0-11.662-8.885-21.48-20.965-24.396A35.111 35.111 0 0 1 35 0c19.33 0 35 15.67 35 35Zm-30.625-9.722c0-9.665-8.814-17.5-19.688-17.5C5.14 7.778 0 24.319 0 35c0 19.33 15.67 35 35 35 10.366 0 19.68-4.506 26.088-11.667h-41.4c.77-.872 1.575-1.77 2.403-2.694 7.693-8.581 17.284-19.278 17.284-30.361Z" fill="#7859CF"/></svg>