<svg version="1.0" xmlns="http://www.w3.org/2000/svg" width="933.333" height="933.333" viewBox="0 0 700 700"><path d="M245.7 29.8c-6 16.3-11.3 30.6-11.8 31.7-.4 1.1-4 10.8-7.9 21.5-21 57.4-27.3 74.8-28.6 77.7-.8 1.7-1.4 3.6-1.4 4.2 0 .6-.4 1.9-1 2.9-.5.9-2.1 5.1-3.6 9.2-3.3 9.3-5.2 14.7-19.4 53-6.2 16.8-12.8 34.8-14.6 40-1.9 5.2-3.7 10.2-4.1 11-.3.8-.7 1.9-.9 2.5-.2.5-2.6 7.3-5.5 15-4.9 13.2-6.9 18.8-14 38-1.7 4.4-4.4 11.8-6 16.5-1.6 4.7-3.4 9.4-3.9 10.5-.5 1.1-3.6 9.6-7 19-3.4 9.3-6.5 17.9-7 19-.5 1.1-5 13-9.9 26.5s-12.4 33.9-16.6 45.5c-4.3 11.5-8.6 23.2-9.5 26-1.5 4.1-10.5 28.9-25.7 70-1.4 3.8-2.9 7.9-3.4 9-.7 1.7-16.3 44.3-31.1 85-2.2 6-4.4 11.9-4.9 13-1.5 3.4-7.9 21.7-7.9 22.6 0 .5 40.4.9 93.9.9h93.8l6.2-20.3c3.5-11.1 8-25.8 10.1-32.7 2.1-6.9 5.9-19.3 8.5-27.5 2.6-8.3 5.5-17.7 6.5-21 1-3.3 3.8-12.3 6.2-20l4.3-14h119.9c105.5 0 120 .2 120.7 1.5.7 1.3 13.8 42.8 14.3 45.5.1.5 1.9 6.4 4 13 6.9 22 12.4 39.9 16.6 53.5 2.3 7.4 4.8 15.3 5.5 17.5l1.3 4 94.1.3c57.4.1 94.1-.2 94.1-.7 0-.5-4.3-12.6-9.5-26.8-5.3-14.2-11.3-30.5-13.5-36.3-2.1-5.8-6.1-16.6-8.8-24-2.8-7.4-8.2-22.3-12.2-33-3.9-10.7-8.2-22.2-9.5-25.5-1.2-3.3-4.1-11-6.3-17-2.2-6.1-7.9-21.6-12.6-34.5-12-32.5-12.7-34.2-13.6-36.5-.4-1.1-1.3-3.6-2-5.5s-1.6-4.4-2-5.5c-.5-1.1-3.3-8.8-6.3-17-3.1-8.3-9.1-24.7-13.5-36.5s-10.5-28.5-13.7-37c-3.1-8.5-6-16.4-6.5-17.5-.4-1.1-3.6-9.7-7-19-3.4-9.4-7.6-20.6-9.2-25-4.1-10.8-3.9-10.4-26.8-72.5-11.1-30-24.8-67.3-30.7-83-5.8-15.7-12.1-32.8-14-38-1.9-5.2-5-13.6-6.8-18.5-4.7-12.4-19.1-51.4-26.8-72.5L442.3.5 349.4.3 256.5 0l-10.8 29.8zm114.9 181.7c7.8 25.3 13.5 43.9 17.4 56 3.1 10 4.8 15.3 21.4 69.5 6.4 20.6 12.2 39.5 13.1 42 1.7 5.1 6.5 20.6 10 32.5 1.4 4.4 3.1 10.1 3.9 12.6l1.4 4.6h-77.9c-57.1 0-77.9-.3-77.9-1.1 0-.6 1.2-4.7 2.6-9.1 1.4-4.4 2.7-8.7 2.9-9.5.2-.8 4.2-13.9 9-29 4.7-15.1 8.8-28.3 9-29.2.4-1.8 6.2-20.7 11.7-37.8 1.6-5.2 3.6-11.5 4.3-14 2-7.1 12-39.2 20.2-65.5 4.1-13.2 7.9-25.4 8.3-27 .5-1.7 2.8-9.3 5.1-16.9l4.4-14 2.3 7.5c1.3 4.1 5.2 16.8 8.8 28.4z"/></svg>