<svg width="32" height="36" fill="none" xmlns="http://www.w3.org/2000/svg"><path fill="#E5E5E5" d="M0 0h32v36H0z"/><path fill="#F8F8F8" d="M-966-10206h2400V2566H-966z"/><rect x="-19.5" y="-131.5" width="209" height="187" rx="4.5" fill="#F8F8F8"/><path fill-rule="evenodd" clip-rule="evenodd" d="M32 18c0 2.874-.599 5.59-1.663 8H17c2.463-3.772 5-8.34 5-13C22 7.002 17.939 1.953 12.416.453A14.35 14.35 0 0 1 16 0c8.837 0 16 8.059 16 18Zm-14-5a9 9 0 0 0-9-9c-6.65 0-9 8.507-9 14 0 9.941 7.163 18 16 18 4.739 0 8.996-2.318 11.926-6H9c.352-.449.72-.91 1.099-1.386C13.616 24.201 18 18.7 18 13Z" fill="#7859CF"/><rect x="-19.5" y="-131.5" width="209" height="187" rx="4.5" stroke="#7859CF" stroke-dasharray="10 5"/></svg>